<?xml version="1.0" encoding="utf-8"?>
<!-- Generator: Adobe Illustrator 19.2.1, SVG Export Plug-In . SVG Version: 6.00 Build 0)  -->
<svg version="1.1" id="Layer_1" xmlns="http://www.w3.org/2000/svg" xmlns:xlink="http://www.w3.org/1999/xlink" x="0px" y="0px"
	 viewBox="0 0 138.1 73.5" style="enable-background:new 0 0 138.1 73.5;" xml:space="preserve">
<style type="text/css">
	.st0{fill:#2D2F3D;}
	.st1{fill:#AEE4E5;}
	.st2{fill:#FFFFFF;}
	.st3{fill:#FFEC00;}
	.st4{fill:#3F3F3F;}
	.st5{fill:#FFFFFF;stroke:#3F3F3F;stroke-miterlimit:10;}
	.st6{fill:#FFFAD2;}
	.st7{fill:none;}
	.st8{fill:#919191;}
</style>
<g>
	<path class="st7" d="M71.1,1.7c0.1,0,0.1,0.1,0.2,0.1C71.2,1.8,71.1,1.7,71.1,1.7z"/>
	<path class="st7" d="M72.1,6C72.1,6,72.1,6,72.1,6C72.1,6,72.1,6,72.1,6z"/>
	<path class="st7" d="M70.5,1.3c0.1,0,0.2,0.1,0.3,0.1C70.7,1.4,70.6,1.4,70.5,1.3z"/>
	<path class="st7" d="M71.2,7.1c0,0-0.1,0.1-0.1,0.1C71.1,7.2,71.1,7.1,71.2,7.1z"/>
	<path class="st7" d="M70.8,7.4c-0.1,0.1-0.2,0.1-0.3,0.1C70.6,7.5,70.7,7.4,70.8,7.4z"/>
	<path class="st7" d="M68.4,1.1C68.6,1,68.8,1,69.1,1C68.8,1,68.6,1,68.4,1.1z"/>
	<path class="st7" d="M69.9,1.1c0.1,0,0.2,0.1,0.4,0.1C70.2,1.2,70,1.2,69.9,1.1z"/>
	<path class="st7" d="M67.3,1.5c0.1-0.1,0.2-0.1,0.3-0.1C67.5,1.4,67.4,1.4,67.3,1.5z"/>
	<path class="st7" d="M69.1,1c0.2,0,0.4,0,0.6,0.1C69.5,1,69.3,1,69.1,1z"/>
	<path class="st7" d="M67.8,1.2c0.1,0,0.2-0.1,0.4-0.1C68.1,1.2,68,1.2,67.8,1.2z"/>
	<path class="st7" d="M66.1,6C66.1,6,66.1,6,66.1,6C66.1,6,66.1,6,66.1,6z"/>
	<path class="st7" d="M67.1,7.2c0,0-0.1-0.1-0.1-0.1C67,7.1,67,7.2,67.1,7.2z"/>
	<path class="st7" d="M20.2,22c0.1-0.1,0.1-0.2,0.2-0.3C20.4,21.7,20.3,21.8,20.2,22z"/>
	<path class="st7" d="M20.5,21.4c0.1-0.2,0.2-0.3,0.4-0.5C20.8,21.1,20.7,21.3,20.5,21.4z"/>
	<path class="st7" d="M70.3,7.6c-0.1,0-0.2,0.1-0.4,0.1C70,7.7,70.2,7.6,70.3,7.6z"/>
	<path class="st7" d="M69.1,7.8c-0.2,0-0.4,0-0.6-0.1C68.6,7.8,68.9,7.8,69.1,7.8z"/>
	<path class="st7" d="M67.6,7.5c-0.1,0-0.2-0.1-0.3-0.1C67.4,7.4,67.5,7.5,67.6,7.5z"/>
	<path class="st7" d="M69.7,7.8c-0.2,0-0.4,0.1-0.6,0.1C69.3,7.8,69.5,7.8,69.7,7.8z"/>
	<path class="st7" d="M68.2,7.7c-0.1,0-0.3-0.1-0.4-0.1C68,7.6,68.1,7.7,68.2,7.7z"/>
	<path class="st7" d="M117.2,20.9c0.2,0.2,0.3,0.3,0.4,0.5C117.5,21.3,117.4,21.1,117.2,20.9z"/>
	<path class="st7" d="M118,22.2c0,0.1,0.1,0.2,0.1,0.3C118.1,22.4,118,22.3,118,22.2z"/>
	<path class="st7" d="M117.7,21.6c0.1,0.1,0.1,0.2,0.2,0.3C117.8,21.8,117.8,21.7,117.7,21.6z"/>
	<path class="st7" d="M20.9,20.9c0.1-0.1,0.3-0.3,0.5-0.4C21.2,20.7,21.1,20.8,20.9,20.9z"/>
	<path class="st7" d="M118.1,22.8c0,0.1,0,0.1,0,0.2C118.2,23,118.2,22.9,118.1,22.8z"/>
	<polygon class="st7" points="111.8,21.8 111.8,21.8 111.8,21.8 	"/>
	<path class="st7" d="M66.9,1.8c0.1,0,0.1-0.1,0.2-0.1C67,1.7,66.9,1.8,66.9,1.8z"/>
	<polygon class="st7" points="116.3,26.4 116.3,26.4 116.3,26.4 	"/>
	<path class="st7" d="M114.2,20c0.2,0,0.4-0.1,0.6-0.1C114.6,19.9,114.4,20,114.2,20z"/>
	<path class="st7" d="M113.8,20.1c0.1,0,0.1,0,0.2-0.1C113.9,20.1,113.8,20.1,113.8,20.1z"/>
	<path class="st7" d="M111.4,23.9c0,0,0-0.1,0-0.1C111.4,23.8,111.4,23.8,111.4,23.9z"/>
	<path class="st7" d="M111.6,24.5c0-0.1-0.1-0.2-0.1-0.3C111.5,24.3,111.5,24.4,111.6,24.5z"/>
	<path class="st7" d="M111.9,25.1c-0.1-0.1-0.1-0.2-0.2-0.3C111.7,24.9,111.8,25,111.9,25.1z"/>
	<path class="st7" d="M112.9,26.2c-0.2-0.1-0.3-0.2-0.5-0.4C112.5,25.9,112.7,26.1,112.9,26.2z"/>
	<path class="st7" d="M113.4,26.5c-0.1-0.1-0.2-0.1-0.3-0.2C113.2,26.3,113.3,26.4,113.4,26.5z"/>
	<path class="st7" d="M112.4,25.8c-0.2-0.2-0.3-0.3-0.4-0.5C112.1,25.5,112.2,25.6,112.4,25.8z"/>
	<path class="st7" d="M113.9,26.6c-0.1,0-0.2-0.1-0.3-0.1C113.7,26.6,113.8,26.6,113.9,26.6z"/>
	<path class="st7" d="M114.4,26.7c0,0-0.1,0-0.1,0C114.3,26.7,114.3,26.7,114.4,26.7z"/>
	<polygon class="st7" points="72.3,5.5 72.3,5.5 72.3,5.5 	"/>
	<path class="st7" d="M133.7,72.5c-0.2,0-0.4,0-0.6-0.1C133.3,72.5,133.5,72.5,133.7,72.5z"/>
	<path class="st7" d="M132.6,64.8c-0.4-5.5-1.4-11-3.2-16.2c-2.7-8.1-7-15.4-12.4-21.5c-0.7,0.4-1.5,0.6-2.2,0.6
		c-1.1,0-2.3-0.4-3.1-1.3c-1.4-1.4-1.7-3.6-0.7-5.3c-10.3-9-23.5-14.6-37.7-15.6c-0.5,1.9-2.2,3.3-4.2,3.3c-2,0-3.7-1.4-4.2-3.3
		c-14.2,0.9-27.3,6.6-37.7,15.6c1,1.7,0.8,3.9-0.7,5.3c-0.9,0.9-2,1.3-3.1,1.3c-0.8,0-1.5-0.2-2.2-0.6c-5.4,6.2-9.6,13.4-12.4,21.5
		C7,53.9,5.9,59.3,5.6,64.8c1.6,0.4,2.8,1.7,3.2,3.3h120.7C129.8,66.5,131,65.2,132.6,64.8z"/>
	<path class="st7" d="M132.2,72.1c-0.1,0-0.2-0.1-0.3-0.1C132.1,72,132.2,72.1,132.2,72.1z"/>
	<polygon class="st7" points="7.7,68.1 7.7,68.1 7.7,68.1 	"/>
	<path class="st7" d="M1.7,67c0-0.1,0.1-0.1,0.1-0.1C1.8,66.9,1.7,67,1.7,67z"/>
	<path class="st7" d="M1.1,68.2c0-0.1,0.1-0.2,0.1-0.4C1.2,68,1.2,68.1,1.1,68.2z"/>
	<path class="st7" d="M1.3,67.6c0-0.1,0.1-0.2,0.1-0.3C1.4,67.4,1.4,67.5,1.3,67.6z"/>
	<polygon class="st7" points="3.5,65.8 3.5,65.8 3.5,65.8 	"/>
	<path class="st7" d="M131.7,71.8c0,0-0.1-0.1-0.1-0.1C131.6,71.7,131.7,71.8,131.7,71.8z"/>
	<path class="st7" d="M137.1,68.4c0,0.2,0.1,0.4,0.1,0.6C137.1,68.8,137.1,68.6,137.1,68.4z"/>
	<path class="st7" d="M1,69.1c0-0.2,0-0.4,0.1-0.6C1,68.6,1,68.8,1,69.1z"/>
	<path class="st7" d="M136.9,67.8c0,0.1,0.1,0.2,0.1,0.4C137,68.1,136.9,68,136.9,67.8z"/>
	<path class="st7" d="M21.6,20.4c0.1-0.1,0.2-0.1,0.3-0.2C21.8,20.3,21.7,20.4,21.6,20.4z"/>
	<path class="st7" d="M136.3,66.9c0,0,0.1,0.1,0.1,0.1C136.4,67,136.4,66.9,136.3,66.9z"/>
	<polygon class="st7" points="134.6,65.8 134.6,65.8 134.6,65.8 	"/>
	<path class="st7" d="M136.6,67.3c0.1,0.1,0.1,0.2,0.1,0.3C136.7,67.5,136.7,67.4,136.6,67.3z"/>
	<polygon class="st7" points="132.6,65.8 132.6,65.8 132.6,65.8 	"/>
	<polygon class="st7" points="130.5,70.1 130.5,70.1 130.5,70.1 	"/>
	<path class="st7" d="M132.9,72.4c-0.1,0-0.2-0.1-0.4-0.1C132.6,72.3,132.7,72.3,132.9,72.4z"/>
	<path class="st7" d="M25.8,25.8c-0.2,0.2-0.3,0.3-0.5,0.4C25.5,26,25.6,25.9,25.8,25.8z"/>
	<path class="st7" d="M26.2,25.3c-0.1,0.2-0.2,0.3-0.4,0.5C25.9,25.6,26.1,25.5,26.2,25.3z"/>
	<path class="st7" d="M26.5,24.8c-0.1,0.1-0.1,0.2-0.2,0.3C26.3,25,26.4,24.9,26.5,24.8z"/>
	<path class="st7" d="M25.1,26.3c-0.1,0.1-0.2,0.1-0.3,0.2C24.9,26.4,25,26.3,25.1,26.3z"/>
	<path class="st7" d="M24.5,26.6c-0.1,0-0.2,0.1-0.3,0.1C24.3,26.6,24.4,26.6,24.5,26.6z"/>
	<path class="st7" d="M26.7,23.8c0,0,0,0.1,0,0.1C26.7,23.8,26.7,23.8,26.7,23.8z"/>
	<path class="st7" d="M22.2,20.2c0.1,0,0.2-0.1,0.3-0.1C22.4,20.1,22.3,20.1,22.2,20.2z"/>
	<path class="st7" d="M26.6,24.2c0,0.1-0.1,0.2-0.1,0.3C26.6,24.4,26.6,24.3,26.6,24.2z"/>
	<path class="st7" d="M5,72.4c-0.2,0-0.4,0.1-0.6,0.1C4.6,72.5,4.8,72.5,5,72.4z"/>
	<path class="st7" d="M23.9,26.7c0,0-0.1,0-0.1,0C23.8,26.7,23.8,26.7,23.9,26.7z"/>
	<path class="st7" d="M22.8,20c0.1,0,0.1,0,0.2,0C22.9,20,22.9,20,22.8,20z"/>
	<path class="st7" d="M6.1,72c-0.1,0-0.2,0.1-0.3,0.1C6,72.1,6.1,72,6.1,72z"/>
	<path class="st7" d="M20.1,22.2c0,0.1-0.1,0.2-0.1,0.3C20.1,22.4,20.1,22.3,20.1,22.2z"/>
	<path class="st7" d="M6.6,71.7c0,0-0.1,0.1-0.1,0.1C6.5,71.8,6.5,71.7,6.6,71.7z"/>
	<path class="st7" d="M5.6,72.3c-0.1,0-0.2,0.1-0.4,0.1C5.4,72.3,5.5,72.3,5.6,72.3z"/>
	<polygon class="st7" points="20.4,25 20.4,25 20.4,25 	"/>
	<path class="st7" d="M20,23c0-0.1,0-0.1,0-0.2C20,22.9,20,23,20,23z"/>
	<path class="st4" d="M134.6,64.7c-0.4-5.7-1.5-11.3-3.3-16.7c-2.8-8.4-7.2-15.9-12.8-22.2c1.1-1.7,0.9-4-0.6-5.6
		c-0.8-0.8-1.9-1.3-3.1-1.3c-0.9,0-1.7,0.3-2.4,0.7C101.7,10.3,88.1,4.5,73.4,3.6C73,1.5,71.2,0,69.1,0c-2.1,0-3.9,1.5-4.3,3.6
		c-14.7,1-28.3,6.8-38.9,16.1c-0.7-0.5-1.6-0.7-2.4-0.7c-1.2,0-2.3,0.5-3.1,1.3c-1.5,1.5-1.7,3.8-0.6,5.6C14.1,32.1,9.7,39.6,6.9,48
		C5,53.4,3.9,59,3.6,64.7c-2,0.4-3.6,2.2-3.6,4.3c0,2.4,2,4.4,4.4,4.4c2.1,0,3.8-1.5,4.3-3.4h120.7c0.5,2,2.2,3.4,4.3,3.4
		c2.4,0,4.4-2,4.4-4.4C138.1,66.9,136.6,65.1,134.6,64.7z M111.8,21.8L111.8,21.8c0.2-0.3,0.4-0.6,0.6-0.9c0.4-0.4,0.9-0.7,1.4-0.8
		c0.1,0,0.1,0,0.2-0.1c0.1,0,0.2,0,0.2,0c0.2,0,0.4-0.1,0.6-0.1c0.9,0,1.8,0.4,2.4,1c0.2,0.2,0.3,0.3,0.4,0.5c0,0.1,0.1,0.1,0.1,0.2
		c0.1,0.1,0.1,0.2,0.2,0.3c0,0.1,0.1,0.2,0.1,0.3c0,0.1,0.1,0.2,0.1,0.3c0,0.1,0.1,0.2,0.1,0.3c0,0.1,0,0.1,0,0.2
		c0.1,0.7-0.1,1.4-0.4,2c0,0,0,0,0,0l0,0c-0.2,0.3-0.3,0.5-0.6,0.8c-0.3,0.3-0.6,0.5-0.9,0.6l0,0c0,0,0,0,0,0
		c-0.6,0.3-1.3,0.4-1.9,0.3c0,0-0.1,0-0.1,0c-0.1,0-0.2,0-0.3-0.1c-0.1,0-0.2-0.1-0.3-0.1c-0.1,0-0.2-0.1-0.3-0.1
		c-0.1-0.1-0.2-0.1-0.3-0.2c-0.1,0-0.1-0.1-0.2-0.1c-0.2-0.1-0.3-0.2-0.5-0.4c-0.2-0.2-0.3-0.3-0.4-0.5c0-0.1-0.1-0.1-0.1-0.2
		c-0.1-0.1-0.1-0.2-0.2-0.3c0-0.1-0.1-0.2-0.1-0.3c0-0.1-0.1-0.2-0.1-0.3c0-0.1-0.1-0.2-0.1-0.3c0,0,0-0.1,0-0.1
		C111.3,23.1,111.4,22.4,111.8,21.8C111.8,21.8,111.8,21.8,111.8,21.8z M65.8,3.5L65.8,3.5L65.8,3.5c0.2-0.7,0.6-1.3,1.1-1.7
		c0.1,0,0.1-0.1,0.2-0.1c0.1-0.1,0.2-0.1,0.3-0.2c0.1-0.1,0.2-0.1,0.3-0.1c0.1,0,0.2-0.1,0.3-0.1c0.1,0,0.2-0.1,0.4-0.1
		c0.1,0,0.1,0,0.2-0.1C68.6,1,68.8,1,69.1,1s0.4,0,0.6,0.1c0.1,0,0.1,0,0.2,0.1c0.1,0,0.2,0.1,0.4,0.1c0.1,0,0.2,0.1,0.3,0.1
		c0.1,0,0.2,0.1,0.3,0.1c0.1,0.1,0.2,0.1,0.3,0.2c0.1,0,0.1,0.1,0.2,0.1c0.8,0.6,1.2,1.6,1.2,2.6c0,0.4-0.1,0.7-0.2,1.1l0,0
		c0,0,0,0,0,0c-0.1,0.2-0.1,0.3-0.2,0.5c0,0,0,0,0,0c-0.2,0.4-0.5,0.8-0.9,1.1c0,0-0.1,0.1-0.1,0.1c-0.1,0.1-0.2,0.1-0.3,0.2
		c-0.1,0.1-0.2,0.1-0.3,0.1c-0.1,0-0.2,0.1-0.2,0.1c-0.1,0-0.2,0.1-0.4,0.1c-0.1,0-0.1,0-0.2,0.1c-0.2,0-0.4,0.1-0.6,0.1
		s-0.4,0-0.6-0.1c-0.1,0-0.1,0-0.2-0.1c-0.1,0-0.3-0.1-0.4-0.1c-0.1,0-0.2-0.1-0.2-0.1c-0.1,0-0.2-0.1-0.3-0.1
		c-0.1-0.1-0.2-0.1-0.3-0.2c0,0-0.1-0.1-0.1-0.1c-0.4-0.3-0.7-0.7-0.9-1.1c0,0,0,0,0,0c-0.2-0.5-0.4-1-0.4-1.6
		C65.7,4.1,65.7,3.8,65.8,3.5z M20.2,22c0.1-0.1,0.1-0.2,0.2-0.3c0-0.1,0.1-0.1,0.1-0.2c0.1-0.2,0.2-0.3,0.4-0.5
		c0.1-0.1,0.3-0.3,0.5-0.4c0.1,0,0.1-0.1,0.2-0.1c0.1-0.1,0.2-0.1,0.3-0.2c0.1,0,0.2-0.1,0.3-0.1c0.1,0,0.2-0.1,0.3-0.1
		c0.1,0,0.2-0.1,0.3-0.1c0.1,0,0.1,0,0.2,0c1-0.1,2,0.2,2.8,0.9c0.8,0.8,1.1,1.8,1,2.8c0,0,0,0.1,0,0.1c0,0.1,0,0.2-0.1,0.3
		c0,0.1-0.1,0.2-0.1,0.3c0,0.1-0.1,0.2-0.1,0.3c-0.1,0.1-0.1,0.2-0.2,0.3c0,0.1-0.1,0.1-0.1,0.2c-0.1,0.2-0.2,0.3-0.4,0.5
		c-0.2,0.2-0.3,0.3-0.5,0.4c-0.1,0-0.1,0.1-0.2,0.1c-0.1,0.1-0.2,0.1-0.3,0.2c-0.1,0-0.2,0.1-0.3,0.1c-0.1,0-0.2,0.1-0.3,0.1
		c-0.1,0-0.2,0.1-0.3,0.1c0,0-0.1,0-0.1,0c-1,0.1-2-0.2-2.8-1c-0.2-0.2-0.4-0.5-0.6-0.8l0,0c0,0,0,0,0,0c-0.3-0.6-0.5-1.3-0.4-2
		c0-0.1,0-0.1,0-0.2c0-0.1,0-0.2,0.1-0.3c0-0.1,0.1-0.2,0.1-0.3C20.2,22.1,20.2,22,20.2,22z M6.6,71.7c0,0-0.1,0.1-0.1,0.1
		c-0.1,0.1-0.2,0.1-0.3,0.2C6.1,72,6,72.1,5.9,72.1c-0.1,0-0.2,0.1-0.3,0.1c-0.1,0-0.2,0.1-0.4,0.1c-0.1,0-0.1,0-0.2,0.1
		c-0.2,0-0.4,0.1-0.6,0.1C2.5,72.5,1,71,1,69.1c0-0.2,0-0.4,0.1-0.6c0-0.1,0-0.1,0.1-0.2c0-0.1,0.1-0.2,0.1-0.4
		c0-0.1,0.1-0.2,0.1-0.3c0-0.1,0.1-0.2,0.1-0.3c0.1-0.1,0.1-0.2,0.2-0.3c0-0.1,0.1-0.1,0.1-0.1c0.4-0.5,1-0.9,1.7-1.1c0,0,0,0,0,0
		l0,0c0.3-0.1,0.6-0.1,0.9-0.1c1.6,0,2.9,1.1,3.3,2.5c0,0,0,0,0,0l0,0c0.1,0.3,0.1,0.6,0.1,0.9C7.8,70.1,7.3,71.1,6.6,71.7z
		 M129.4,68.1H8.7c-0.4-1.6-1.6-2.9-3.2-3.3C5.9,59.3,7,53.9,8.7,48.7c2.7-8.1,7-15.4,12.4-21.5c0.7,0.4,1.5,0.6,2.2,0.6
		c1.1,0,2.3-0.4,3.1-1.3c1.4-1.4,1.7-3.6,0.7-5.3c10.3-9,23.5-14.6,37.7-15.6c0.5,1.9,2.2,3.3,4.2,3.3c2,0,3.7-1.4,4.2-3.3
		c14.2,0.9,27.3,6.6,37.7,15.6c-1,1.7-0.8,3.9,0.7,5.3c0.9,0.9,2,1.3,3.1,1.3c0.8,0,1.5-0.2,2.2-0.6c5.4,6.2,9.6,13.4,12.4,21.5
		c1.8,5.2,2.8,10.6,3.2,16.2C131,65.2,129.8,66.5,129.4,68.1z M133.7,72.5c-0.2,0-0.4,0-0.6-0.1c-0.1,0-0.1,0-0.2-0.1
		c-0.1,0-0.2-0.1-0.4-0.1c-0.1,0-0.2-0.1-0.3-0.1c-0.1,0-0.2-0.1-0.3-0.1c-0.1-0.1-0.2-0.1-0.3-0.2c0,0-0.1-0.1-0.1-0.1
		c-0.5-0.4-0.9-1-1.1-1.7c0,0,0,0,0,0l0,0c-0.1-0.3-0.2-0.6-0.2-1c0-1.5,1-2.8,2.3-3.2c0,0,0,0,0,0l0,0c0.3-0.1,0.7-0.2,1.1-0.2
		c0.3,0,0.6,0.1,0.9,0.1l0,0c0,0,0,0,0,0c0.7,0.2,1.3,0.6,1.7,1.1c0,0,0.1,0.1,0.1,0.1c0.1,0.1,0.1,0.2,0.2,0.3
		c0.1,0.1,0.1,0.2,0.1,0.3c0,0.1,0.1,0.2,0.1,0.3c0,0.1,0.1,0.2,0.1,0.4c0,0.1,0,0.1,0.1,0.2c0,0.2,0.1,0.4,0.1,0.6
		C137.1,71,135.6,72.5,133.7,72.5z"/>
	<path class="st2" d="M137.1,68.4c0-0.1,0-0.1-0.1-0.2c0-0.1-0.1-0.2-0.1-0.4c0-0.1-0.1-0.2-0.1-0.3c0-0.1-0.1-0.2-0.1-0.3
		c-0.1-0.1-0.1-0.2-0.2-0.3c0-0.1-0.1-0.1-0.1-0.1c-0.4-0.5-1-0.9-1.7-1.1l0,0c-0.3-0.1-0.6-0.1-0.9-0.1c-0.4,0-0.7,0.1-1.1,0.2
		c0,0,0,0,0,0c-1.4,0.5-2.3,1.7-2.3,3.2c0,0.3,0.1,0.7,0.2,1c0,0,0,0,0,0c0.2,0.7,0.6,1.2,1.1,1.7c0,0,0.1,0.1,0.1,0.1
		c0.1,0.1,0.2,0.1,0.3,0.2c0.1,0,0.2,0.1,0.3,0.1c0.1,0,0.2,0.1,0.3,0.1c0.1,0,0.2,0.1,0.4,0.1c0.1,0,0.1,0,0.2,0.1
		c0.2,0,0.4,0.1,0.6,0.1c1.9,0,3.4-1.5,3.4-3.4C137.1,68.9,137.1,68.6,137.1,68.4z"/>
	<path class="st2" d="M7.7,68.1c-0.4-1.4-1.7-2.5-3.3-2.5c-0.3,0-0.6,0.1-0.9,0.1l0,0c-0.7,0.2-1.3,0.6-1.7,1.1c0,0-0.1,0.1-0.1,0.1
		c-0.1,0.1-0.1,0.2-0.2,0.3c-0.1,0.1-0.1,0.2-0.1,0.3c0,0.1-0.1,0.2-0.1,0.3c0,0.1-0.1,0.2-0.1,0.4c0,0.1,0,0.1-0.1,0.2
		C1,68.6,1,68.9,1,69.1c0,1.9,1.5,3.4,3.4,3.4c0.2,0,0.4,0,0.6-0.1c0.1,0,0.1,0,0.2-0.1c0.1,0,0.2-0.1,0.4-0.1
		c0.1,0,0.2-0.1,0.3-0.1C6,72.1,6.1,72,6.1,72c0.1-0.1,0.2-0.1,0.3-0.2c0,0,0.1-0.1,0.1-0.1c0.8-0.6,1.3-1.6,1.3-2.6
		C7.8,68.7,7.8,68.4,7.7,68.1C7.7,68.1,7.7,68.1,7.7,68.1z"/>
	<path class="st2" d="M66.1,6c0.2,0.4,0.5,0.8,0.9,1.1c0,0,0.1,0.1,0.1,0.1c0.1,0.1,0.2,0.1,0.3,0.2c0.1,0.1,0.2,0.1,0.3,0.1
		c0.1,0,0.2,0.1,0.2,0.1c0.1,0,0.2,0.1,0.4,0.1c0.1,0,0.1,0,0.2,0.1c0.2,0,0.4,0.1,0.6,0.1s0.4,0,0.6-0.1c0.1,0,0.1,0,0.2-0.1
		c0.1,0,0.3-0.1,0.4-0.1c0.1,0,0.2-0.1,0.2-0.1c0.1,0,0.2-0.1,0.3-0.1c0.1-0.1,0.2-0.1,0.3-0.2c0,0,0.1-0.1,0.1-0.1
		c0.4-0.3,0.7-0.7,0.9-1.1c0,0,0,0,0,0c0.1-0.2,0.1-0.3,0.2-0.5c0,0,0,0,0,0c0.1-0.3,0.2-0.7,0.2-1.1c0-1.1-0.5-2-1.2-2.6
		c-0.1,0-0.1-0.1-0.2-0.1c-0.1-0.1-0.2-0.1-0.3-0.2c-0.1-0.1-0.2-0.1-0.3-0.1c-0.1,0-0.2-0.1-0.3-0.1c-0.1,0-0.2-0.1-0.4-0.1
		c-0.1,0-0.1,0-0.2-0.1C69.5,1,69.3,1,69.1,1s-0.4,0-0.6,0.1c-0.1,0-0.1,0-0.2,0.1c-0.1,0-0.2,0.1-0.4,0.1c-0.1,0-0.2,0.1-0.3,0.1
		c-0.1,0-0.2,0.1-0.3,0.1c-0.1,0.1-0.2,0.1-0.3,0.2c-0.1,0-0.1,0.1-0.2,0.1c-0.5,0.4-0.9,1-1.1,1.7l0,0c-0.1,0.3-0.1,0.6-0.1,0.9
		C65.7,5,65.8,5.5,66.1,6C66.1,6,66.1,6,66.1,6z"/>
	<path class="st2" d="M111.4,23.8c0,0,0,0.1,0,0.1c0,0.1,0,0.2,0.1,0.3c0,0.1,0.1,0.2,0.1,0.3c0,0.1,0.1,0.2,0.1,0.3
		c0.1,0.1,0.1,0.2,0.2,0.3c0,0.1,0.1,0.1,0.1,0.2c0.1,0.2,0.2,0.3,0.4,0.5c0.2,0.2,0.3,0.3,0.5,0.4c0.1,0,0.1,0.1,0.2,0.1
		c0.1,0.1,0.2,0.1,0.3,0.2c0.1,0,0.2,0.1,0.3,0.1c0.1,0,0.2,0.1,0.3,0.1c0.1,0,0.2,0.1,0.3,0.1c0,0,0.1,0,0.1,0
		c0.7,0.1,1.3,0,1.9-0.3c0,0,0,0,0,0c0.3-0.2,0.6-0.4,0.9-0.6c0.2-0.2,0.4-0.5,0.6-0.8c0,0,0,0,0,0c0.3-0.6,0.5-1.3,0.4-2
		c0-0.1,0-0.1,0-0.2c0-0.1,0-0.2-0.1-0.3c0-0.1-0.1-0.2-0.1-0.3c0-0.1-0.1-0.2-0.1-0.3c-0.1-0.1-0.1-0.2-0.2-0.3
		c0-0.1-0.1-0.1-0.1-0.2c-0.1-0.2-0.2-0.3-0.4-0.5c-0.6-0.6-1.5-1-2.4-1c-0.2,0-0.4,0-0.6,0.1c-0.1,0-0.2,0-0.2,0
		c-0.1,0-0.1,0-0.2,0.1c-0.5,0.2-1,0.4-1.4,0.8c-0.3,0.3-0.5,0.6-0.6,0.9c0,0,0,0,0,0C111.4,22.4,111.3,23.1,111.4,23.8z"/>
	<path class="st2" d="M20,22.8c0,0.1,0,0.1,0,0.2c-0.1,0.7,0.1,1.4,0.4,2c0,0,0,0,0,0c0.2,0.3,0.3,0.5,0.6,0.8
		c0.8,0.8,1.8,1.1,2.8,1c0,0,0.1,0,0.1,0c0.1,0,0.2,0,0.3-0.1c0.1,0,0.2-0.1,0.3-0.1c0.1,0,0.2-0.1,0.3-0.1c0.1-0.1,0.2-0.1,0.3-0.2
		c0.1,0,0.1-0.1,0.2-0.1c0.2-0.1,0.3-0.2,0.5-0.4c0.2-0.2,0.3-0.3,0.4-0.5c0-0.1,0.1-0.1,0.1-0.2c0.1-0.1,0.1-0.2,0.2-0.3
		c0-0.1,0.1-0.2,0.1-0.3c0-0.1,0.1-0.2,0.1-0.3c0-0.1,0.1-0.2,0.1-0.3c0,0,0-0.1,0-0.1c0.1-1-0.2-2-1-2.8C25,20.2,24,19.9,23,20
		c-0.1,0-0.1,0-0.2,0c-0.1,0-0.2,0-0.3,0.1c-0.1,0-0.2,0-0.3,0.1c-0.1,0-0.2,0.1-0.3,0.1c-0.1,0.1-0.2,0.1-0.3,0.2
		c-0.1,0-0.1,0.1-0.2,0.1c-0.2,0.1-0.3,0.2-0.5,0.4c-0.2,0.2-0.3,0.3-0.4,0.5c0,0.1-0.1,0.1-0.1,0.2c-0.1,0.1-0.1,0.2-0.2,0.3
		c0,0.1-0.1,0.2-0.1,0.3c0,0.1-0.1,0.2-0.1,0.3C20,22.6,20,22.7,20,22.8z"/>
</g>
</svg>
