<?xml version="1.0" encoding="utf-8"?>
<!-- Generator: Adobe Illustrator 19.2.1, SVG Export Plug-In . SVG Version: 6.00 Build 0)  -->
<svg version="1.1" id="Layer_1" xmlns="http://www.w3.org/2000/svg" xmlns:xlink="http://www.w3.org/1999/xlink" x="0px" y="0px"
	 viewBox="0 0 98.1 44.8" style="enable-background:new 0 0 98.1 44.8;" xml:space="preserve">
<style type="text/css">
	.st0{fill:#2D2F3D;}
	.st1{fill:#AEE4E5;}
	.st2{fill:#FFFFFF;}
	.st3{fill:#FFEC00;}
	.st4{fill:#3F3F3F;}
	.st5{fill:#FFFFFF;stroke:#3F3F3F;stroke-miterlimit:10;}
	.st6{fill:#FFFAD2;}
	.st7{fill:none;}
	.st8{fill:#919191;}
</style>
<g>
	<path class="st2" d="M97.6,26.8c0.3,0,0.5,0.2,0.5,0.5s-0.2,0.5-0.5,0.5c-0.3,0-0.5-0.2-0.5-0.5S97.3,26.8,97.6,26.8z"/>
	<path class="st2" d="M97.6,42.8c0.3,0,0.5,0.2,0.5,0.5s-0.2,0.5-0.5,0.5c-0.3,0-0.5-0.2-0.5-0.5S97.3,42.8,97.6,42.8z"/>
	<path class="st2" d="M87.8,29.5c0.3,0,0.5,0.2,0.5,0.5c0,0.3-0.2,0.5-0.5,0.5c-0.3,0-0.5-0.2-0.5-0.5
		C87.3,29.7,87.6,29.5,87.8,29.5z"/>
	<circle class="st2" cx="78.5" cy="5.8" r="0.5"/>
	<circle class="st2" cx="76.2" cy="33.8" r="0.5"/>
	<path class="st2" d="M72.6,17.2c0.3,0,0.5,0.2,0.5,0.5s-0.2,0.5-0.5,0.5c-0.3,0-0.5-0.2-0.5-0.5S72.3,17.2,72.6,17.2z"/>
	<path class="st2" d="M71.1,2c0.3,0,0.5,0.2,0.5,0.5c0,0.3-0.2,0.5-0.5,0.5c-0.3,0-0.5-0.2-0.5-0.5C70.6,2.2,70.8,2,71.1,2z"/>
	<path class="st2" d="M71.1,19.8c0.3,0,0.5,0.2,0.5,0.5s-0.2,0.5-0.5,0.5c-0.3,0-0.5-0.2-0.5-0.5S70.8,19.8,71.1,19.8z"/>
	<path class="st2" d="M69.6,17.2c0.3,0,0.5,0.2,0.5,0.5s-0.2,0.5-0.5,0.5c-0.3,0-0.5-0.2-0.5-0.5S69.3,17.2,69.6,17.2z"/>
	<path class="st2" d="M68.6,31.8c0.3,0,0.5,0.2,0.5,0.5c0,0.3-0.2,0.5-0.5,0.5c-0.3,0-0.5-0.2-0.5-0.5C68.1,32,68.3,31.8,68.6,31.8z
		"/>
	<path class="st2" d="M64,1c0.3,0,0.5,0.2,0.5,0.5C64.5,1.8,64.3,2,64,2s-0.5-0.2-0.5-0.5C63.5,1.2,63.7,1,64,1z"/>
	<path class="st2" d="M61.5,35.2c0.3,0,0.5,0.2,0.5,0.5c0,0.3-0.2,0.5-0.5,0.5S61,36,61,35.8C61,35.5,61.2,35.2,61.5,35.2z"/>
	<path class="st2" d="M58.8,7.7c0.3,0,0.5,0.2,0.5,0.5c0,0.3-0.2,0.5-0.5,0.5c-0.3,0-0.5-0.2-0.5-0.5C58.3,7.9,58.6,7.7,58.8,7.7z"
		/>
	<path class="st2" d="M42.6,23.9c0.3,0,0.5,0.2,0.5,0.5c0,0.3-0.2,0.5-0.5,0.5c-0.3,0-0.5-0.2-0.5-0.5
		C42.1,24.1,42.3,23.9,42.6,23.9z"/>
	<path class="st2" d="M41.6,20.8c0.3,0,0.5,0.2,0.5,0.5s-0.2,0.5-0.5,0.5c-0.3,0-0.5-0.2-0.5-0.5S41.3,20.8,41.6,20.8z"/>
	<circle class="st2" cx="39.2" cy="34.2" r="0.5"/>
	<path class="st2" d="M36.1,29.5c0.3,0,0.5,0.2,0.5,0.5c0,0.3-0.2,0.5-0.5,0.5c-0.3,0-0.5-0.2-0.5-0.5
		C35.6,29.7,35.8,29.5,36.1,29.5z"/>
	<path class="st2" d="M33.4,42.8c0.3,0,0.5,0.2,0.5,0.5c0,0.3-0.2,0.5-0.5,0.5c-0.3,0-0.5-0.2-0.5-0.5C32.9,43,33.1,42.8,33.4,42.8z
		"/>
	<path class="st2" d="M32.4,3.1c0.3,0,0.5,0.2,0.5,0.5c0,0.3-0.2,0.5-0.5,0.5c-0.3,0-0.5-0.2-0.5-0.5C31.9,3.3,32.1,3.1,32.4,3.1z"
		/>
	<path class="st2" d="M31,0c0.3,0,0.5,0.2,0.5,0.5C31.5,0.8,31.3,1,31,1s-0.5-0.2-0.5-0.5C30.5,0.2,30.7,0,31,0z"/>
	<path class="st2" d="M31,12.3c0.3,0,0.5,0.2,0.5,0.5c0,0.3-0.2,0.5-0.5,0.5s-0.5-0.2-0.5-0.5C30.5,12.6,30.7,12.3,31,12.3z"/>
	<path class="st2" d="M21.5,7.2c0.3,0,0.5,0.2,0.5,0.5c0,0.3-0.2,0.5-0.5,0.5S21,7.9,21,7.7C21,7.4,21.2,7.2,21.5,7.2z"/>
	<path class="st2" d="M20.1,19.2c0.3,0,0.5,0.2,0.5,0.5s-0.2,0.5-0.5,0.5c-0.3,0-0.5-0.2-0.5-0.5S19.8,19.2,20.1,19.2z"/>
	<path class="st2" d="M18.4,17.2c0.3,0,0.5,0.2,0.5,0.5s-0.2,0.5-0.5,0.5c-0.3,0-0.5-0.2-0.5-0.5S18.1,17.2,18.4,17.2z"/>
	<path class="st2" d="M15.6,21.2c0.3,0,0.5,0.2,0.5,0.5s-0.2,0.5-0.5,0.5c-0.3,0-0.5-0.2-0.5-0.5S15.4,21.2,15.6,21.2z"/>
	<path class="st2" d="M14.6,36.2c0.3,0,0.5,0.2,0.5,0.5c0,0.3-0.2,0.5-0.5,0.5c-0.3,0-0.5-0.2-0.5-0.5
		C14.1,36.5,14.4,36.2,14.6,36.2z"/>
	<path class="st2" d="M4.3,42.8c0.3,0,0.5,0.2,0.5,0.5c0,0.3-0.2,0.5-0.5,0.5c-0.3,0-0.5-0.2-0.5-0.5C3.8,43,4.1,42.8,4.3,42.8z"/>
	<path class="st2" d="M2,22.6c0.3,0,0.5,0.2,0.5,0.5c0,0.3-0.2,0.5-0.5,0.5s-0.5-0.2-0.5-0.5C1.5,22.8,1.7,22.6,2,22.6z"/>
	<path class="st2" d="M1,39.8c0.3,0,0.5,0.2,0.5,0.5c0,0.3-0.2,0.5-0.5,0.5s-0.5-0.2-0.5-0.5C0.5,40.1,0.7,39.8,1,39.8z"/>
	<path class="st2" d="M0.5,43.8C0.8,43.8,1,44,1,44.2c0,0.3-0.2,0.5-0.5,0.5S0,44.5,0,44.2C0,44,0.2,43.8,0.5,43.8z"/>
</g>
</svg>
